# xmcd
#
# Track frame offsets: 
#        150
#        17027
#        41090
#        62743
#        87472
#        106451
#        124162
#        142346
#        166245
#        185402
#        207258
#        226443
#        251622
#
# Disc length: 3641 seconds
#
# Revision: 0
# Processed by: cddbd v1.5.2PL0 Copyright (c) Steve Scherf et al.
# Submitted via: ExactAudioCopy v0.99pb3
#
DISCID=bd0e370d
DTITLE=Roland Tchakounté - Waka
DYEAR=2008
DGENRE=Blues
TTITLE0=Ka tchog bouam
TTITLE1=Bintou
TTITLE2=Yogsam ba nguk
TTITLE3=Politik
TTITLE4=Zuiktam
TTITLE5=Alela
TTITLE6=Me den Nwina
TTITLE7=Ngwade kebwo
TTITLE8=Take your time
TTITLE9=Africa
TTITLE10=X O Blues
TTITLE11=Njuli
TTITLE12=Me seyn
EXTD=
EXTT0=
EXTT1=
EXTT2=
EXTT3=
EXTT4=
EXTT5=
EXTT6=
EXTT7=
EXTT8=
EXTT9=
EXTT10=
EXTT11=
EXTT12=
PLAYORDER=
